<svg width="97" height="28" viewBox="0 0 97 28" fill="none" xmlns="http://www.w3.org/2000/svg">
<path d="M7 21H1.4V6.64H7C8.52 6.64 9.83333 6.94 10.94 7.54C12.0467 8.14 12.9 8.97333 13.5 10.04C14.1 11.1067 14.4 12.34 14.4 13.74C14.4 15.1267 14.0933 16.3733 13.48 17.48C12.8667 18.5733 12 19.4333 10.88 20.06C9.77333 20.6867 8.48 21 7 21ZM5.18 9.9V17.74H6.78C7.62 17.74 8.31333 17.5933 8.86 17.3C9.42 17.0067 9.83333 16.5667 10.1 15.98C10.38 15.38 10.52 14.6333 10.52 13.74C10.52 12.8867 10.38 12.18 10.1 11.62C9.82 11.0467 9.4 10.62 8.84 10.34C8.29333 10.0467 7.60667 9.9 6.78 9.9H5.18ZM20.9409 21.18C19.8343 21.18 18.8609 20.9467 18.0209 20.48C17.1943 20.0133 16.5476 19.36 16.0809 18.52C15.6276 17.68 15.4009 16.7067 15.4009 15.6C15.4009 14.52 15.6343 13.5667 16.1009 12.74C16.5809 11.9 17.2343 11.24 18.0609 10.76C18.9009 10.28 19.8543 10.04 20.9209 10.04C21.8143 10.04 22.6209 10.2067 23.3409 10.54C24.0609 10.8733 24.6609 11.34 25.1409 11.94C25.6343 12.5267 25.9809 13.2133 26.1809 14C26.3809 14.7733 26.4009 15.6 26.2409 16.48H17.4609V14.34H22.5809C22.5676 13.7933 22.4009 13.36 22.0809 13.04C21.7609 12.72 21.3476 12.56 20.8409 12.56C20.4009 12.56 20.0343 12.6733 19.7409 12.9C19.4609 13.1133 19.2476 13.4467 19.1009 13.9C18.9543 14.3533 18.8809 14.9267 18.8809 15.62C18.8809 16.26 18.9543 16.8 19.1009 17.24C19.2476 17.6667 19.4676 17.9867 19.7609 18.2C20.0543 18.4133 20.4209 18.52 20.8609 18.52C21.3409 18.52 21.7409 18.42 22.0609 18.22C22.3809 18.02 22.6143 17.7267 22.7609 17.34H26.1809C25.8476 18.5667 25.2276 19.5133 24.3209 20.18C23.4143 20.8467 22.2876 21.18 20.9409 21.18ZM37.8467 10.24L33.9867 21H30.1867L26.2867 10.24H30.0067L32.1667 17.12L34.3667 10.24H37.8467ZM44.8809 21V19.96C44.5076 20.3867 44.0743 20.7 43.5809 20.9C43.0876 21.1 42.4943 21.2 41.8009 21.2C40.6809 21.2 39.7743 20.8933 39.0809 20.28C38.4009 19.6533 38.0609 18.8333 38.0609 17.82C38.0609 16.7667 38.4743 15.9667 39.3009 15.42C40.1276 14.86 41.3076 14.58 42.8409 14.58C43.1343 14.58 43.4143 14.5933 43.6809 14.62C43.9476 14.6333 44.1943 14.66 44.4209 14.7V14.18C44.4209 13.7133 44.2876 13.3533 44.0209 13.1C43.7676 12.8467 43.4009 12.72 42.9209 12.72C42.4543 12.72 42.0809 12.8467 41.8009 13.1C41.5343 13.3533 41.3676 13.7133 41.3009 14.18H38.2209C38.2876 13.34 38.5276 12.6133 38.9409 12C39.3543 11.3733 39.9009 10.8933 40.5809 10.56C41.2743 10.2133 42.0609 10.04 42.9409 10.04C44.4209 10.04 45.5743 10.42 46.4009 11.18C47.2276 11.94 47.6409 13 47.6409 14.36V21H44.8809ZM41.2809 17.72C41.2809 18.0667 41.3943 18.34 41.6209 18.54C41.8609 18.74 42.1876 18.84 42.6009 18.84C43.1743 18.84 43.6209 18.7133 43.9409 18.46C44.2609 18.2067 44.4209 17.86 44.4209 17.42V16.74C44.1676 16.6867 43.9343 16.6533 43.7209 16.64C43.5076 16.6133 43.2876 16.6 43.0609 16.6C42.4876 16.6 42.0476 16.6933 41.7409 16.88C41.4343 17.0667 41.2809 17.3467 41.2809 17.72ZM53.1923 15.34V21H49.7723V10.24H52.9123V11.54C53.339 11.0733 53.8057 10.7067 54.3123 10.44C54.8323 10.1733 55.4323 10.04 56.1123 10.04C57.179 10.04 58.0457 10.3867 58.7123 11.08C59.3923 11.7733 59.7323 12.7733 59.7323 14.08V21H56.3123V15.22C56.3123 14.54 56.1857 14.02 55.9323 13.66C55.6923 13.3 55.3123 13.12 54.7923 13.12C54.5123 13.12 54.2457 13.1933 53.9923 13.34C53.7523 13.4867 53.559 13.72 53.4123 14.04C53.2657 14.36 53.1923 14.7933 53.1923 15.34ZM71.4217 17.34C71.4217 18.5267 70.9951 19.4667 70.1417 20.16C69.2884 20.8533 68.0484 21.2 66.4217 21.2C64.8084 21.2 63.5617 20.8467 62.6817 20.14C61.8017 19.42 61.3084 18.44 61.2017 17.2H64.4817C64.4817 17.6533 64.6684 18.0133 65.0417 18.28C65.4151 18.5467 65.8951 18.68 66.4817 18.68C66.8684 18.68 67.2084 18.6267 67.5017 18.52C67.8084 18.4133 67.9617 18.22 67.9617 17.94C67.9617 17.7 67.8684 17.52 67.6817 17.4C67.5084 17.28 67.2351 17.1867 66.8617 17.12L64.7417 16.74C63.8084 16.5667 63.0617 16.2133 62.5017 15.68C61.9417 15.1467 61.6617 14.4467 61.6617 13.58C61.6617 12.8867 61.8484 12.2733 62.2217 11.74C62.5951 11.2067 63.1217 10.7933 63.8017 10.5C64.4951 10.1933 65.3084 10.04 66.2417 10.04C67.1884 10.04 68.0217 10.2 68.7417 10.52C69.4617 10.8267 70.0351 11.2733 70.4617 11.86C70.9017 12.4467 71.1551 13.14 71.2217 13.94H67.9417C67.9017 13.5133 67.7284 13.18 67.4217 12.94C67.1151 12.6867 66.7284 12.56 66.2617 12.56C65.8617 12.56 65.5417 12.62 65.3017 12.74C65.0617 12.8467 64.9417 13.02 64.9417 13.26C64.9417 13.4867 65.0284 13.6467 65.2017 13.74C65.3751 13.8333 65.6284 13.9133 65.9617 13.98L68.2417 14.4C69.2817 14.5867 70.0684 14.9333 70.6017 15.44C71.1484 15.9333 71.4217 16.5667 71.4217 17.34ZM76.4931 15.34V21H73.0731V6.64H76.4931V11.4C76.8798 10.9733 77.2931 10.64 77.7331 10.4C78.1731 10.16 78.7331 10.04 79.4131 10.04C80.4798 10.04 81.3465 10.3867 82.0131 11.08C82.6931 11.7733 83.0331 12.7733 83.0331 14.08V21H79.6131V15.22C79.6131 14.54 79.4865 14.02 79.2331 13.66C78.9931 13.3 78.6131 13.12 78.0931 13.12C77.8131 13.12 77.5465 13.1933 77.2931 13.34C77.0531 13.4867 76.8598 13.72 76.7131 14.04C76.5665 14.36 76.4931 14.7933 76.4931 15.34Z" fill="black"/>
<g clip-path="url(#clip0_217_4)">
<mask id="mask0_217_4" style="mask-type:luminance" maskUnits="userSpaceOnUse" x="85" y="0" width="12" height="12">
<path d="M97 0H85V12H97V0Z" fill="white"/>
</mask>
<g mask="url(#mask0_217_4)">
<path fill-rule="evenodd" clip-rule="evenodd" d="M97 3V2.62268e-07L91 0V2.99882C90.9994 1.34251 89.6565 2.62268e-07 88 2.62268e-07H85V6H88C86.3431 6 85 7.34316 85 9L85 12H91V9C91 10.6568 92.3432 12 94 12H97V6H94.0012C95.6575 5.99936 97 4.65646 97 3Z" fill="black"/>
</g>
</g>
<defs>
<clipPath id="clip0_217_4">
<rect width="12" height="12" fill="white" transform="translate(85)"/>
</clipPath>
</defs>
</svg>
